<?xml version="1.0" encoding="iso-8859-1"?>
<!-- Uploaded to: SVG Repo, www.svgrepo.com, Generator: SVG Repo Mixer Tools -->
<svg fill="#e53935" height="22px" width="22px" version="1.1" id="Layer_1" xmlns="http://www.w3.org/2000/svg" xmlns:xlink="http://www.w3.org/1999/xlink" 
	 viewBox="0 0 330.002 330.002" xml:space="preserve">
<g id="XMLID_2_">
	<path id="XMLID_4_" d="M77.663,124.049c2.817,4.217,7.525,6.667,12.47,6.667c0.971,0,1.952-0.094,2.929-0.289
		c5.951-1.184,10.602-5.836,11.786-11.786l16.709-84.005c0.776-3.902-0.03-7.952-2.24-11.26c-2.21-3.308-5.644-5.602-9.546-6.378
		L25.766,0.289c-5.954-1.185-12.028,1.334-15.398,6.378c-3.371,5.044-3.371,11.623,0,16.667l28.479,42.621
		C16.693,94.131,4.609,128.869,4.609,165.003c0,63.78,37.771,121.495,96.225,147.037c1.955,0.854,3.993,1.259,5.998,1.259
		c5.781,0,11.29-3.362,13.753-8.998c3.317-7.591-0.148-16.434-7.739-19.751c-47.527-20.767-78.236-67.692-78.236-119.546
		c0-26.025,7.713-51.155,21.992-72.476L77.663,124.049z M89.206,43.495l-6.718,33.776L55.431,36.778L89.206,43.495z"/>
	<path id="XMLID_7_" d="M291.163,264.043c22.148-28.174,34.229-62.909,34.229-99.039c0-63.779-37.771-121.494-96.225-147.037
		c-7.59-3.316-16.434,0.148-19.751,7.739c-3.317,7.591,0.147,16.434,7.739,19.752c47.526,20.768,78.236,67.693,78.236,119.547
		c0,26.02-7.711,51.147-21.985,72.467l-21.059-31.516c-3.37-5.044-9.445-7.564-15.397-6.378
		c-5.951,1.184-10.603,5.835-11.786,11.785l-16.711,84.005c-0.776,3.902,0.029,7.953,2.24,11.26c2.21,3.308,5.644,5.602,9.546,6.378
		l84.006,16.708c0.977,0.194,1.957,0.289,2.928,0.289c0.15,0,0.3-0.002,0.45-0.006c8.084-0.229,14.568-6.854,14.568-14.994
		c0-3.344-1.095-6.433-2.945-8.928L291.163,264.043z M240.805,286.507l6.719-33.776l27.058,40.495L240.805,286.507z"/>
</g>
</svg>