<?xml version="1.0" encoding="iso-8859-1"?>
<!-- Uploaded to: SVG Repo, www.svgrepo.com, Generator: SVG Repo Mixer Tools -->
<!DOCTYPE svg PUBLIC "-//W3C//DTD SVG 1.1//EN" "http://www.w3.org/Graphics/SVG/1.1/DTD/svg11.dtd">
<svg fill="#757575" height="30px" width="30px" version="1.1" id="Capa_1" xmlns="http://www.w3.org/2000/svg" xmlns:xlink="http://www.w3.org/1999/xlink" 
	 viewBox="0 0 59 59" xml:space="preserve">
<path d="M54.981,23.208C54.576,10.489,44.443,2,29.5,2S4.424,10.489,4.019,23.208C1.705,23.857,0,25.981,0,28.5v14
	C0,45.532,2.468,48,5.5,48c1.965,0,3.688-1.039,4.661-2.594C13.961,52.52,21.291,57,29.5,57s15.539-4.48,19.339-11.594
	C49.812,46.961,51.535,48,53.5,48c3.032,0,5.5-2.468,5.5-5.5v-14C59,25.981,57.295,23.857,54.981,23.208z M9,42.465
	c-0.006,0.046-0.016,0.142-0.017,0.176c0,0.003,0.002,0.006,0.002,0.009C8.905,44.509,7.379,46,5.5,46C3.57,46,2,44.43,2,42.5v-14
	C2,26.57,3.57,25,5.5,25c1.688,0,3.101,1.202,3.428,2.794c0,0.001,0,0.003,0,0.004C8.977,28.025,9,28.262,9,28.5V42.465z M21,37
	c0-1.105,0.895-2,2-2s2,0.895,2,2c0,1.104-0.895,2-2,2S21,38.104,21,37z M30,52c-4.411,0-8-3.589-8-8c0-0.553,0.447-1,1-1
	s1,0.447,1,1c0,3.309,2.691,6,6,6s6-2.691,6-6c0-0.553,0.447-1,1-1s1,0.447,1,1C38,48.411,34.411,52,30,52z M37,39
	c-1.105,0-2-0.896-2-2c0-1.105,0.895-2,2-2s2,0.895,2,2C39,38.104,38.105,39,37,39z M48,32.393c-5.288,1.427-8.204-2.89-9.83-5.312
	c-0.011-0.017-0.045-0.066-0.123-0.079c-0.031-0.004-0.107-0.006-0.181,0.054c-6.033,4.819-13.221,6.003-18.822,6.003
	c-3.551,0-6.464-0.475-8.044-0.801v-2.051c3.158,0.675,16.16,2.843,25.617-4.714c0.488-0.39,1.118-0.559,1.733-0.468
	c0.601,0.092,1.14,0.435,1.479,0.94c2.076,3.093,4.278,5.729,8.17,4.349V32.393z M49.141,25.159C45.565,17.708,38.091,13,29.5,13
	S13.435,17.708,9.859,25.159c-0.906-1.179-2.273-1.984-3.833-2.133C6.57,9.897,18.082,4,29.5,4s22.93,5.897,23.474,19.027
	C51.414,23.176,50.047,23.98,49.141,25.159z M57,42.5c0,1.93-1.57,3.5-3.5,3.5c-1.879,0-3.405-1.491-3.485-3.351
	c0-0.003,0.002-0.006,0.002-0.009C50.015,42.576,50.008,42.513,50,42.5V31.601v-2.264V28.5c0-0.238,0.023-0.475,0.071-0.701
	c0-0.001,0-0.003,0-0.004C50.399,26.202,51.812,25,53.5,25c1.93,0,3.5,1.57,3.5,3.5V42.5z"/>
</svg>